<svg width="24" height="24" viewBox="0 0 24 24" fill="none" xmlns="http://www.w3.org/2000/svg">
<path d="M15 4.25012C15 3.17012 13.726 2.59912 12.92 3.31512L8.427 7.31012C8.28986 7.4323 8.11266 7.4999 7.929 7.50012H4.25C3.65361 7.50012 3.08162 7.7369 2.65972 8.15842C2.23782 8.57995 2.00053 9.15173 2 9.74812V14.2451C2 14.8419 2.23705 15.4142 2.65901 15.8361C3.08097 16.2581 3.65326 16.4951 4.25 16.4951H7.93C8.11366 16.4953 8.29086 16.5629 8.428 16.6851L12.919 20.6781C13.725 21.3951 15 20.8231 15 19.7441V4.25012V4.25012ZM9.425 8.43012L13.5 4.80612V19.1881L9.425 15.5651C9.01319 15.1987 8.48121 14.9963 7.93 14.9961H4.25C4.05109 14.9961 3.86032 14.9171 3.71967 14.7765C3.57902 14.6358 3.5 14.445 3.5 14.2461V9.74812C3.5 9.54921 3.57902 9.35844 3.71967 9.21779C3.86032 9.07714 4.05109 8.99812 4.25 8.99812H7.93C8.48108 8.99826 9.01304 8.79615 9.425 8.43012V8.43012ZM18.992 5.89712C19.1518 5.77873 19.3521 5.72865 19.5488 5.7579C19.7455 5.78716 19.9226 5.89335 20.041 6.05312C21.3164 7.77329 22.0033 9.85873 22 12.0001C22.003 14.1416 21.3157 16.227 20.04 17.9471C19.982 18.0279 19.9085 18.0964 19.8238 18.1485C19.7391 18.2007 19.6449 18.2354 19.5467 18.2508C19.4484 18.2662 19.3481 18.2619 19.2515 18.2381C19.1549 18.2144 19.064 18.1716 18.9841 18.1124C18.9042 18.0532 18.8369 17.9787 18.786 17.8932C18.7352 17.8077 18.7019 17.713 18.688 17.6145C18.6741 17.516 18.68 17.4157 18.7052 17.3195C18.7305 17.2233 18.7746 17.1331 18.835 17.0541C19.9192 15.5924 20.5031 13.82 20.5 12.0001C20.5029 10.1806 19.919 8.40854 18.835 6.94712C18.7763 6.8679 18.7337 6.77788 18.7099 6.68221C18.686 6.58654 18.6812 6.48709 18.6957 6.38956C18.7103 6.29204 18.744 6.19834 18.7948 6.11384C18.8457 6.02934 18.9127 5.9557 18.992 5.89712V5.89712ZM17.143 8.36912C17.2296 8.32215 17.3246 8.29271 17.4226 8.28246C17.5206 8.27222 17.6196 8.28138 17.7141 8.30943C17.8085 8.33747 17.8965 8.38385 17.973 8.44591C18.0495 8.50797 18.1131 8.5845 18.16 8.67112C18.696 9.66212 19 10.7961 19 12.0001C19.0017 13.1621 18.7129 14.3061 18.16 15.3281C18.1131 15.4148 18.0496 15.4914 17.9731 15.5535C17.8967 15.6157 17.8087 15.6621 17.7143 15.6902C17.6198 15.7184 17.5208 15.7276 17.4227 15.7175C17.3247 15.7074 17.2297 15.678 17.143 15.6311C17.0563 15.5842 16.9797 15.5207 16.9176 15.4443C16.8555 15.3678 16.809 15.2798 16.7809 15.1854C16.7527 15.0909 16.7435 14.9919 16.7536 14.8939C16.7638 14.7959 16.7931 14.7008 16.84 14.6141C17.26 13.8371 17.5 12.9471 17.5 11.9991C17.5011 11.0864 17.2742 10.1879 16.84 9.38512C16.7455 9.2102 16.7244 9.00492 16.7812 8.81441C16.838 8.62389 16.9682 8.46373 17.143 8.36912V8.36912Z" fill="white"/>
</svg>
