<svg width="17" height="16" viewBox="0 0 17 16" fill="none" xmlns="http://www.w3.org/2000/svg">
<path d="M10.9971 1.00595C10.9971 0.132946 9.95707 -0.321054 9.31707 0.272946L5.44507 3.86595C5.35271 3.95191 5.23125 3.99978 5.10507 3.99995H2.49707C2.09925 3.99995 1.71771 4.15798 1.43641 4.43929C1.15511 4.72059 0.99707 5.10212 0.99707 5.49995V10.4999C0.99707 10.8978 1.15511 11.2793 1.43641 11.5606C1.71771 11.8419 2.09925 11.9999 2.49707 11.9999H5.10507C5.23112 11.9998 5.35255 12.0473 5.44507 12.1329L9.31707 15.7269C9.95707 16.3199 10.9971 15.8669 10.9971 14.9939V1.00595ZM6.12507 4.59895L9.99707 1.00595V14.9939L6.12507 11.3999C5.84767 11.1428 5.48334 10.9999 5.10507 10.9999H2.49707C2.36446 10.9999 2.23729 10.9473 2.14352 10.8535C2.04975 10.7597 1.99707 10.6326 1.99707 10.4999V5.49995C1.99707 5.36734 2.04975 5.24016 2.14352 5.14639C2.23729 5.05262 2.36446 4.99995 2.49707 4.99995H5.10507C5.48334 5 5.84767 4.85712 6.12507 4.59995V4.59895ZM14.2571 2.62695C14.3061 2.58321 14.3632 2.54956 14.4252 2.5279C14.4871 2.50624 14.5528 2.49701 14.6184 2.50072C14.6839 2.50444 14.7481 2.52103 14.8072 2.54955C14.8664 2.57807 14.9193 2.61796 14.9631 2.66695C16.2748 4.13363 16.9999 6.03228 16.9999 7.99995C16.9999 9.96761 16.2748 11.8663 14.9631 13.3329C14.8742 13.4303 14.7506 13.4887 14.6189 13.4954C14.4873 13.502 14.3583 13.4564 14.2601 13.3685C14.162 13.2806 14.1024 13.1575 14.0946 13.0259C14.0867 12.8943 14.1311 12.765 14.2181 12.6659C15.3659 11.3826 16.0004 9.72121 16.0004 7.99945C16.0004 6.27768 15.3659 4.61631 14.2181 3.33295C14.1296 3.23415 14.084 3.10427 14.0914 2.97187C14.0987 2.83947 14.1583 2.7154 14.2571 2.62695V2.62695ZM13.0811 10.9329C12.9662 10.8666 12.8824 10.7574 12.8481 10.6293C12.8138 10.5013 12.8318 10.3648 12.8981 10.2499C13.2931 9.56584 13.5009 8.78977 13.5008 7.99981C13.5006 7.20986 13.2924 6.43388 12.8971 5.74995C12.8318 5.63517 12.8146 5.49923 12.8492 5.37181C12.8838 5.24439 12.9674 5.13583 13.0817 5.06981C13.1961 5.00379 13.3319 4.98568 13.4595 5.01943C13.5872 5.05317 13.6963 5.13604 13.7631 5.24995C14.2461 6.0859 14.5006 7.03432 14.5007 7.99981C14.5009 8.9653 14.2468 9.91382 13.7641 10.7499C13.6978 10.8648 13.5886 10.9486 13.4605 10.9829C13.3324 11.0172 13.1959 10.9992 13.0811 10.9329Z" fill="#111111"/>
</svg>
