<svg width="16" height="17" viewBox="0 0 16 17" fill="none" xmlns="http://www.w3.org/2000/svg">
<path d="M11.702 0.226098C11.8517 0.179376 12.0102 0.168499 12.1649 0.194346C12.3195 0.220193 12.4659 0.282039 12.5922 0.374891C12.7186 0.467744 12.8213 0.589 12.8921 0.728872C12.963 0.868745 12.9999 1.02331 13 1.1801V7.2071C12.6731 7.1149 12.3383 7.0533 12 7.0231V4.1801L5 6.3681V13.5001C5 14.0633 4.80985 14.6099 4.46035 15.0516C4.11086 15.4932 3.62249 15.8038 3.07439 15.9332C2.52628 16.0626 1.95054 16.0031 1.44044 15.7645C0.930353 15.5258 0.515794 15.1219 0.263935 14.6181C0.012076 14.1144 -0.0623279 13.5404 0.0527782 12.9891C0.167884 12.4378 0.465757 11.9416 0.898134 11.5807C1.33051 11.2199 1.87206 11.0156 2.43505 11.0009C2.99803 10.9863 3.54946 11.1622 4 11.5001V3.3681C3.99991 3.15487 4.06798 2.94719 4.19427 2.77539C4.32056 2.60358 4.49846 2.47664 4.702 2.4131L11.702 0.226098ZM5 5.3201L12 3.1331V1.1801L5 3.3681V5.3201ZM2.5 12.0001C2.10218 12.0001 1.72065 12.1581 1.43934 12.4394C1.15804 12.7207 1 13.1023 1 13.5001C1 13.8979 1.15804 14.2795 1.43934 14.5608C1.72065 14.8421 2.10218 15.0001 2.5 15.0001C2.89783 15.0001 3.27936 14.8421 3.56066 14.5608C3.84197 14.2795 4 13.8979 4 13.5001C4 13.1023 3.84197 12.7207 3.56066 12.4394C3.27936 12.1581 2.89783 12.0001 2.5 12.0001ZM16 12.5001C16 13.6936 15.5259 14.8382 14.682 15.6821C13.8381 16.526 12.6935 17.0001 11.5 17.0001C10.3065 17.0001 9.16194 16.526 8.31802 15.6821C7.47411 14.8382 7 13.6936 7 12.5001C7 11.3066 7.47411 10.162 8.31802 9.31812C9.16194 8.4742 10.3065 8.0001 11.5 8.0001C12.6935 8.0001 13.8381 8.4742 14.682 9.31812C15.5259 10.162 16 11.3066 16 12.5001ZM13.735 12.0641L10.741 10.4141C10.6649 10.3722 10.5792 10.3509 10.4923 10.3522C10.4054 10.3536 10.3204 10.3775 10.2456 10.4218C10.1708 10.466 10.1088 10.5289 10.0657 10.6044C10.0227 10.6798 10 10.7652 10 10.8521V14.1521C10 14.239 10.0227 14.3244 10.0657 14.3998C10.1088 14.4753 10.1708 14.5382 10.2456 14.5824C10.3204 14.6267 10.4054 14.6506 10.4923 14.652C10.5792 14.6533 10.6649 14.632 10.741 14.5901L13.735 12.9401C13.8134 12.8969 13.8788 12.8335 13.9243 12.7565C13.9698 12.6794 13.9938 12.5916 13.9938 12.5021C13.9938 12.4126 13.9698 12.3248 13.9243 12.2477C13.8788 12.1707 13.8134 12.1073 13.735 12.0641Z" fill="#008000"/>
</svg>
